<?xml version="1.0" encoding="UTF-8"?><svg id="Layer_2" xmlns="http://www.w3.org/2000/svg" viewBox="0 0 743.44 196.83"><defs><style>.cls-1{fill:#0394e0;}.cls-2{fill:#fabc20;}.cls-3{fill:#1d287d;}</style></defs><g id="Calque_1"><path class="cls-3" d="M272.56,77.17l17.31,5.23c-1.16,4.86-2.99,8.91-5.49,12.17-2.5,3.26-5.6,5.71-9.31,7.37s-8.42,2.49-14.15,2.49c-6.95,0-12.62-1.01-17.03-3.03-4.4-2.02-8.21-5.57-11.4-10.65-3.2-5.08-4.8-11.59-4.8-19.52,0-10.57,2.81-18.7,8.44-24.38,5.63-5.68,13.58-8.52,23.87-8.52,8.05,0,14.38,1.63,18.99,4.88,4.61,3.26,8.03,8.26,10.27,15l-17.44,3.88c-.61-1.95-1.25-3.37-1.92-4.27-1.11-1.51-2.46-2.67-4.06-3.49-1.6-.81-3.39-1.22-5.36-1.22-4.48,0-7.91,1.8-10.29,5.4-1.8,2.67-2.7,6.87-2.7,12.59,0,7.09,1.08,11.94,3.23,14.57,2.15,2.63,5.17,3.94,9.07,3.94s6.64-1.06,8.57-3.18c1.93-2.12,3.34-5.2,4.21-9.24Z"/><path class="cls-3" d="M292.53,80.31c0-7.06,2.38-12.89,7.15-17.46,4.77-4.58,11.21-6.87,19.32-6.87,9.27,0,16.28,2.69,21.02,8.07,3.81,4.33,5.71,9.67,5.71,16,0,7.12-2.36,12.96-7.09,17.51-4.72,4.55-11.26,6.82-19.6,6.82-7.44,0-13.46-1.89-18.05-5.67-5.64-4.68-8.46-10.81-8.46-18.4ZM310.32,80.27c0,4.13.84,7.18,2.51,9.16,1.67,1.98,3.77,2.97,6.3,2.97s4.66-.97,6.3-2.92c1.64-1.95,2.46-5.07,2.46-9.38,0-4.01-.83-7-2.49-8.96-1.66-1.96-3.71-2.94-6.15-2.94-2.59,0-4.72,1-6.41,2.99-1.69,1.99-2.53,5.02-2.53,9.09Z"/><path class="cls-3" d="M350.79,120.95v-63.93h16.61v6.85c2.3-2.88,4.4-4.83,6.32-5.84,2.59-1.37,5.45-2.05,8.59-2.05,6.19,0,10.98,2.37,14.37,7.11,3.39,4.74,5.08,10.6,5.08,17.57,0,7.7-1.85,13.58-5.54,17.64-3.69,4.06-8.36,6.08-14,6.08-2.73,0-5.23-.47-7.48-1.4-2.25-.93-4.27-2.31-6.04-4.14v22.11h-17.92ZM368.58,80.31c0,3.66.77,6.38,2.31,8.15,1.54,1.77,3.49,2.66,5.84,2.66,2.06,0,3.79-.85,5.19-2.55,1.4-1.7,2.09-4.59,2.09-8.66,0-3.75-.73-6.5-2.18-8.26-1.45-1.76-3.23-2.64-5.32-2.64-2.27,0-4.16.89-5.67,2.66-1.51,1.77-2.27,4.65-2.27,8.63Z"/><path class="cls-3" d="M458.11,84.58h-35.58c.32,2.85,1.09,4.97,2.31,6.37,1.72,2.01,3.95,3.01,6.72,3.01,1.74,0,3.4-.44,4.97-1.31.96-.55,1.99-1.53,3.1-2.92l17.49,1.61c-2.67,4.65-5.9,7.99-9.68,10.01-3.78,2.02-9.2,3.03-16.26,3.03-6.13,0-10.96-.87-14.48-2.59-3.52-1.73-6.43-4.48-8.74-8.24-2.31-3.76-3.47-8.19-3.47-13.28,0-7.24,2.32-13.1,6.95-17.57,4.64-4.48,11.04-6.72,19.21-6.72,6.63,0,11.86,1,15.7,3.01s6.76,4.91,8.76,8.72c2.01,3.81,3.01,8.76,3.01,14.87v2.01ZM440.06,76.08c-.35-3.43-1.27-5.89-2.77-7.37-1.5-1.48-3.47-2.22-5.91-2.22-2.82,0-5.07,1.12-6.76,3.36-1.08,1.4-1.76,3.47-2.05,6.24h17.49Z"/><path class="cls-3" d="M462.87,57.03h16.61v7.59c1.6-3.28,3.25-5.54,4.95-6.78,1.7-1.24,3.8-1.85,6.3-1.85s5.48.81,8.59,2.44l-5.49,12.65c-2.09-.87-3.75-1.31-4.97-1.31-2.33,0-4.13.96-5.41,2.88-1.83,2.7-2.75,7.76-2.75,15.17v15.52h-17.83v-46.31Z"/><path class="cls-3" d="M503.2,57.03h16.53v7.54c2.47-3.08,4.97-5.28,7.5-6.61,2.53-1.32,5.61-1.98,9.24-1.98,4.91,0,8.76,1.46,11.53,4.38,2.78,2.92,4.16,7.43,4.16,13.54v29.43h-17.83v-25.47c0-2.91-.54-4.96-1.61-6.17-1.08-1.21-2.59-1.81-4.53-1.81-2.15,0-3.9.81-5.23,2.44-1.34,1.63-2.01,4.55-2.01,8.76v22.24h-17.75v-46.31Z"/><path class="cls-3" d="M559.85,39.41h17.75v12.08h-17.75v-12.08ZM559.85,57.03h17.75v46.31h-17.75v-46.31Z"/><path class="cls-3" d="M619.9,85.2l16.88,1.92c-.93,3.52-2.46,6.56-4.58,9.14-2.12,2.57-4.83,4.57-8.13,6-3.3,1.42-7.49,2.14-12.58,2.14s-9-.46-12.28-1.37c-3.27-.91-6.08-2.4-8.44-4.44-2.35-2.05-4.2-4.45-5.54-7.21-1.34-2.76-2.01-6.42-2.01-10.98s.81-8.73,2.44-11.89c1.19-2.32,2.82-4.41,4.88-6.25,2.06-1.84,4.19-3.22,6.37-4.12,3.46-1.42,7.89-2.13,13.3-2.13,7.56,0,13.32,1.35,17.29,4.06,3.97,2.7,6.75,6.66,8.35,11.86l-16.7,2.22c-.52-1.98-1.48-3.47-2.86-4.47-1.38-1-3.23-1.5-5.56-1.5-2.94,0-5.31,1.05-7.13,3.16-1.82,2.1-2.73,5.29-2.73,9.55,0,3.8.9,6.69,2.7,8.66,1.8,1.97,4.1,2.96,6.89,2.96,2.33,0,4.28-.6,5.86-1.79,1.58-1.19,2.77-3.02,3.55-5.49Z"/><path class="cls-3" d="M690.15,103.34h-16.57v-7.5c-2.47,3.08-4.96,5.28-7.48,6.58-2.51,1.31-5.6,1.96-9.27,1.96-4.88,0-8.71-1.46-11.49-4.38-2.78-2.92-4.16-7.42-4.16-13.5v-29.48h17.83v25.47c0,2.91.54,4.97,1.61,6.19,1.08,1.22,2.59,1.83,4.53,1.83,2.12,0,3.86-.81,5.21-2.44,1.35-1.63,2.03-4.55,2.03-8.76v-22.28h17.75v46.31Z"/><path class="cls-3" d="M694.21,90.47l17.62-1.66c.73,2.09,1.74,3.59,3.05,4.49,1.31.9,3.05,1.35,5.23,1.35,2.38,0,4.23-.51,5.54-1.52,1.02-.75,1.53-1.7,1.53-2.83,0-1.28-.67-2.26-2.01-2.96-.96-.49-3.5-1.1-7.63-1.83-6.16-1.07-10.44-2.07-12.84-2.98-2.4-.91-4.42-2.46-6.06-4.64-1.64-2.18-2.46-4.66-2.46-7.45,0-3.05.89-5.68,2.66-7.89,1.77-2.21,4.21-3.86,7.33-4.94,3.11-1.09,7.28-1.63,12.51-1.63,5.52,0,9.6.42,12.23,1.26,2.63.84,4.83,2.15,6.58,3.92,1.76,1.77,3.22,4.17,4.38,7.19l-16.83,1.66c-.44-1.48-1.16-2.57-2.18-3.27-1.4-.93-3.08-1.4-5.06-1.4s-3.47.36-4.38,1.07c-.92.71-1.37,1.57-1.37,2.59,0,1.13.58,1.99,1.74,2.57,1.16.58,3.69,1.1,7.59,1.57,5.9.67,10.29,1.6,13.17,2.79,2.88,1.19,5.08,2.89,6.61,5.1,1.53,2.21,2.29,4.63,2.29,7.27s-.81,5.27-2.42,7.8c-1.61,2.53-4.16,4.54-7.63,6.03-3.47,1.5-8.21,2.24-14.19,2.24-8.46,0-14.48-1.21-18.07-3.62-3.59-2.41-5.89-5.84-6.91-10.29Z"/><path class="cls-1" d="M249.29,158.77h-4.74l-1.88-4.9h-8.62l-1.78,4.9h-4.62l8.4-21.56h4.6l8.63,21.56ZM241.28,150.24l-2.97-8-2.91,8h5.88Z"/><path class="cls-1" d="M261.18,158.77v-21.56h6.52l3.91,14.71,3.87-14.71h6.53v21.56h-4.04v-16.98l-4.28,16.98h-4.19l-4.27-16.98v16.98h-4.05Z"/><path class="cls-1" d="M295.99,137.21h8.62c1.71,0,2.98.07,3.82.21.84.14,1.59.44,2.25.89.66.45,1.21,1.05,1.65,1.8.44.75.66,1.59.66,2.52,0,1.01-.27,1.94-.82,2.78s-1.28,1.48-2.21,1.9c1.31.38,2.32,1.03,3.03,1.96.71.92,1.06,2.01,1.06,3.25,0,.98-.23,1.93-.68,2.86-.46.93-1.08,1.67-1.87,2.22-.79.55-1.76.9-2.92,1.02-.73.08-2.48.13-5.25.15h-7.34v-21.56ZM300.35,140.8v4.99h2.85c1.7,0,2.75-.02,3.16-.07.74-.09,1.33-.35,1.76-.77.43-.43.64-.99.64-1.68s-.18-1.21-.55-1.63c-.37-.42-.91-.67-1.64-.76-.43-.05-1.67-.07-3.72-.07h-2.5ZM300.35,149.37v5.77h4.03c1.57,0,2.56-.04,2.99-.13.65-.12,1.17-.4,1.58-.86.41-.46.61-1.07.61-1.83,0-.65-.16-1.2-.47-1.65-.31-.45-.77-.78-1.36-.99-.59-.21-1.88-.31-3.86-.31h-3.52Z"/><path class="cls-1" d="M346.82,158.77h-4.74l-1.88-4.9h-8.62l-1.78,4.9h-4.62l8.4-21.56h4.6l8.63,21.56ZM338.8,150.24l-2.97-8-2.91,8h5.88Z"/><path class="cls-1" d="M357.67,151.75l4.24-.41c.25,1.42.77,2.47,1.55,3.13.78.67,1.83,1,3.16,1,1.4,0,2.46-.3,3.17-.89.71-.59,1.07-1.29,1.07-2.08,0-.51-.15-.94-.45-1.3-.3-.36-.82-.67-1.57-.93-.51-.18-1.67-.49-3.49-.94-2.33-.58-3.97-1.29-4.91-2.13-1.32-1.19-1.99-2.63-1.99-4.34,0-1.1.31-2.13.93-3.08.62-.96,1.52-1.68,2.69-2.18s2.59-.75,4.24-.75c2.71,0,4.74.59,6.11,1.78,1.37,1.19,2.09,2.77,2.15,4.75l-4.35.19c-.19-1.11-.59-1.9-1.2-2.39-.61-.49-1.53-.73-2.76-.73s-2.26.26-2.97.78c-.46.33-.69.78-.69,1.34,0,.51.22.95.65,1.31.55.46,1.88.94,4,1.44,2.12.5,3.68,1.02,4.7,1.55,1.01.53,1.81,1.26,2.38,2.19.57.93.86,2.07.86,3.43,0,1.24-.34,2.39-1.03,3.47-.69,1.08-1.66,1.88-2.91,2.41-1.26.52-2.82.79-4.69.79-2.73,0-4.82-.63-6.28-1.89-1.46-1.26-2.33-3.1-2.62-5.51Z"/><path class="cls-1" d="M387.4,151.75l4.24-.41c.26,1.42.77,2.47,1.55,3.13.78.67,1.83,1,3.16,1,1.4,0,2.46-.3,3.17-.89.71-.59,1.07-1.29,1.07-2.08,0-.51-.15-.94-.45-1.3-.3-.36-.82-.67-1.57-.93-.51-.18-1.67-.49-3.49-.94-2.33-.58-3.97-1.29-4.91-2.13-1.32-1.19-1.99-2.63-1.99-4.34,0-1.1.31-2.13.93-3.08.62-.96,1.52-1.68,2.69-2.18s2.59-.75,4.24-.75c2.71,0,4.74.59,6.11,1.78,1.37,1.19,2.09,2.77,2.15,4.75l-4.35.19c-.19-1.11-.59-1.9-1.2-2.39-.61-.49-1.53-.73-2.76-.73s-2.26.26-2.97.78c-.46.33-.69.78-.69,1.34,0,.51.22.95.65,1.31.55.46,1.88.94,4,1.44,2.12.5,3.68,1.02,4.7,1.55,1.01.53,1.81,1.26,2.38,2.19.57.93.86,2.07.86,3.43,0,1.24-.34,2.39-1.03,3.47-.69,1.08-1.66,1.88-2.91,2.41-1.26.52-2.82.79-4.69.79-2.73,0-4.82-.63-6.28-1.89-1.46-1.26-2.33-3.1-2.62-5.51Z"/><path class="cls-1" d="M437.68,158.77h-4.74l-1.88-4.9h-8.62l-1.78,4.9h-4.62l8.4-21.56h4.6l8.63,21.56ZM429.67,150.24l-2.97-8-2.91,8h5.88Z"/><path class="cls-1" d="M449.62,137.21h7.96c1.79,0,3.16.14,4.1.41,1.27.37,2.35,1.03,3.25,1.99s1.59,2.12,2.06,3.49c.47,1.38.71,3.08.71,5.1,0,1.78-.22,3.31-.66,4.59-.54,1.57-1.31,2.84-2.31,3.81-.76.74-1.78,1.31-3.06,1.72-.96.3-2.25.46-3.85.46h-8.19v-21.56ZM453.97,140.85v14.28h3.25c1.22,0,2.09-.07,2.63-.21.71-.18,1.29-.48,1.76-.9.47-.42.85-1.12,1.14-2.08.29-.97.44-2.28.44-3.95s-.15-2.95-.44-3.84c-.29-.89-.71-1.59-1.24-2.09-.53-.5-1.2-.84-2.02-1.01-.61-.14-1.8-.21-3.57-.21h-1.96Z"/><path class="cls-1" d="M480.15,148.12c0-2.2.33-4.04.99-5.53.49-1.1,1.16-2.08,2.01-2.96s1.78-1.52,2.79-1.94c1.34-.57,2.89-.85,4.65-.85,3.18,0,5.72.99,7.63,2.96,1.91,1.97,2.86,4.71,2.86,8.22s-.95,6.21-2.84,8.17c-1.89,1.97-4.42,2.95-7.59,2.95s-5.76-.98-7.65-2.93c-1.89-1.96-2.84-4.65-2.84-8.08ZM484.63,147.97c0,2.44.56,4.29,1.69,5.55,1.13,1.26,2.56,1.89,4.3,1.89s3.16-.63,4.27-1.88c1.11-1.25,1.67-3.13,1.67-5.63s-.54-4.31-1.63-5.53c-1.08-1.22-2.52-1.82-4.32-1.82s-3.24.62-4.34,1.85c-1.1,1.23-1.65,3.09-1.65,5.57Z"/><path class="cls-1" d="M514.12,158.77v-21.56h9.16c2.3,0,3.98.19,5.02.58,1.04.39,1.88,1.08,2.51,2.07.63.99.94,2.12.94,3.4,0,1.62-.48,2.95-1.43,4.01-.95,1.05-2.37,1.72-4.27,1.99.94.55,1.72,1.15,2.33,1.81.61.66,1.44,1.82,2.48,3.5l2.63,4.21h-5.21l-3.15-4.69c-1.12-1.68-1.88-2.73-2.29-3.17-.41-.44-.85-.74-1.31-.9-.46-.16-1.19-.24-2.19-.24h-.88v9h-4.35ZM518.47,146.33h3.22c2.09,0,3.39-.09,3.91-.26.52-.18.93-.48,1.22-.91s.44-.97.44-1.62c0-.73-.19-1.31-.58-1.76-.39-.45-.93-.73-1.64-.85-.35-.05-1.41-.07-3.18-.07h-3.4v5.47Z"/><path class="cls-1" d="M732.86,143.23c-2.3-2.3-3.76-5.12-4.41-8.08-.64,2.96-2.1,5.78-4.41,8.08-1.07,1.07-2.46,2.17-5.34,2.18h-174.07v4.45h174.15c2.6.03,4.2,1.12,5.26,2.18,2.3,2.3,3.76,5.12,4.41,8.08.64-2.96,2.1-5.78,4.41-8.08s5.12-3.76,8.08-4.41c-2.96-.64-5.78-2.1-8.08-4.41Z"/><polygon class="cls-2" points="92.53 19.92 98.93 15.22 105.34 19.92 102.88 12.35 109.41 7.65 101.39 7.65 98.93 0 96.48 7.69 88.45 7.65 94.94 12.35 92.53 19.92"/><polygon class="cls-2" points="48.28 31.79 54.73 27.09 61.09 31.79 58.68 24.22 65.17 19.56 57.14 19.56 54.69 11.87 52.23 19.56 44.25 19.56 50.73 24.22 48.28 31.79"/><polygon class="cls-2" points="22.35 44.3 19.9 51.96 11.87 51.96 18.4 56.66 15.94 64.18 22.35 59.53 28.75 64.18 26.34 56.66 32.83 51.96 24.8 51.96 22.35 44.3"/><polygon class="cls-2" points="10.48 103.67 16.89 108.37 14.47 100.8 20.96 96.1 12.93 96.1 10.48 88.45 8.03 96.15 0 96.1 6.53 100.8 4.08 108.37 10.48 103.67"/><polygon class="cls-2" points="24.8 140.41 22.35 132.75 19.9 140.41 11.87 140.41 18.4 145.11 15.94 152.63 22.35 147.98 28.75 152.63 26.34 145.11 32.83 140.41 24.8 140.41"/><polygon class="cls-2" points="57.24 172.85 54.79 165.19 52.33 172.85 44.31 172.85 50.8 177.51 48.38 185.08 54.79 180.38 61.19 185.08 58.74 177.51 65.27 172.85 57.24 172.85"/><polygon class="cls-2" points="101.39 184.56 98.93 176.9 96.48 184.6 88.45 184.56 94.94 189.26 92.53 196.83 98.93 192.13 105.34 196.83 102.88 189.26 109.41 184.56 101.39 184.56"/><polygon class="cls-2" points="145.53 172.85 143.08 165.19 140.62 172.85 132.59 172.85 139.12 177.51 136.67 185.08 143.08 180.38 149.48 185.08 147.07 177.51 153.56 172.85 145.53 172.85"/><polygon class="cls-2" points="177.96 140.41 175.51 132.75 173.05 140.41 165.03 140.41 171.52 145.11 169.1 152.63 175.51 147.98 181.91 152.63 179.46 145.11 185.95 140.41 177.96 140.41"/><polygon class="cls-2" points="197.7 95.99 189.67 95.99 187.22 88.34 184.76 95.99 176.74 95.99 183.27 100.69 180.81 108.26 187.22 103.56 193.62 108.26 191.21 100.69 197.7 95.99"/><polygon class="cls-2" points="169.1 64.07 175.51 59.41 181.91 64.07 179.46 56.5 185.95 51.84 177.96 51.84 175.51 44.19 173.05 51.84 165.03 51.84 171.52 56.5 169.1 64.07"/><polygon class="cls-2" points="143.19 11.92 140.78 19.57 132.75 19.57 139.24 24.23 136.79 31.8 143.23 27.1 149.6 31.8 147.18 24.23 153.67 19.57 145.65 19.57 143.19 11.92"/><path class="cls-3" d="M122.29,92.35c-1.95-3.74-5.1-6.74-8.94-8.49,1.28,2.33,2.3,5.23,2.96,8.49h5.98Z"/><path class="cls-3" d="M88.73,109.8c1.95,3.74,5.1,6.74,8.95,8.49h0c-1.28-2.33-2.3-5.23-2.96-8.49h-5.99Z"/><path class="cls-3" d="M97.68,83.86c-3.85,1.75-7,4.75-8.95,8.49h5.98c.66-3.26,1.68-6.15,2.96-8.49Z"/><path class="cls-3" d="M101.19,115.59c1.87,3.74,3.65,4.4,4.33,4.4s2.45-.65,4.33-4.4c.8-1.61,1.49-3.56,2-5.78h-12.65c.51,2.22,1.2,4.17,2,5.78Z"/><path class="cls-3" d="M109.84,86.57c-1.87-3.74-3.65-4.4-4.33-4.4s-2.45.65-4.33,4.4c-.8,1.61-1.49,3.56-2,5.78h12.65c-.51-2.22-1.2-4.17-2-5.78Z"/><path class="cls-3" d="M93.89,101.08c0-1.49.07-2.95.2-4.36h-6.97c-.33,1.4-.51,2.86-.51,4.36s.17,2.96.51,4.36h6.97c-.14-1.41-.2-2.87-.2-4.36Z"/><path class="cls-3" d="M98.85,28.17c-38.8,0-70.25,31.45-70.25,70.25s31.45,70.25,70.25,70.25,70.25-31.45,70.25-70.25S137.65,28.17,98.85,28.17ZM125.67,112.71c-4.16,7.2-11.84,11.64-20.15,11.64s-16-4.44-20.15-11.64c-4.16-7.2-4.16-16.07,0-23.27,4.16-7.2,11.84-11.64,20.15-11.64s16,4.44,20.15,11.64c4.16,7.2,4.16,16.07,0,23.27ZM141.1,78.92c-5.84-9.39-15.39-16.51-27.25-18.94-21.08-4.31-42.31,8.41-48.49,29.02-6.82,22.75,6.53,46.47,29.3,52.58,7.24,1.94,14.55,1.85,21.32.1.3-.08.44.35.16.47-9.07,3.59-19.32,4.42-29.47,1.7-25.68-6.88-40.67-33.73-32.75-59.36,7.3-23.64,32.18-37.67,56.2-31.73,14.46,3.58,25.64,13.45,31.41,25.94.13.28-.27.5-.43.23Z"/><path class="cls-3" d="M98.47,96.71c-.15,1.39-.23,2.85-.23,4.36s.08,2.97.23,4.36h14.09c.15-1.39.23-2.85.23-4.36s-.08-2.97-.23-4.36h-14.09Z"/><path class="cls-3" d="M116.95,96.71h0c.14,1.41.2,2.87.2,4.36s-.07,2.95-.2,4.36h6.97c.33-1.4.51-2.86.51-4.36s-.17-2.96-.51-4.36h-6.96Z"/><path class="cls-3" d="M113.34,118.29c3.85-1.75,7-4.75,8.94-8.49h-5.98c-.66,3.26-1.68,6.15-2.96,8.49Z"/></g></svg>