<svg width="119" height="148" xmlns="http://www.w3.org/2000/svg" xmlns:xlink="http://www.w3.org/1999/xlink" xml:space="preserve" overflow="hidden"><defs><clipPath id="clip0"><rect x="1130" y="13" width="119" height="148"/></clipPath></defs><g clip-path="url(#clip0)" transform="translate(-1130 -13)"><path d="M88.4244 370.76 85.2537 374.238C83.5843 373.252 82.3834 372.76 81.6508 372.76 81.0864 372.76 80.5998 372.977 80.1916 373.409 79.7833 373.831 79.579 374.334 79.579 374.922 79.579 376.087 80.636 377.097 82.7497 377.949 84.299 378.61 85.4699 379.209 86.2624 379.75 87.0552 380.278 87.7158 381.017 88.2442 381.966 88.7846 382.914 89.0547 383.941 89.0547 385.047 89.0547 387.076 88.2321 388.842 86.5868 390.342 84.9535 391.845 83.02 392.595 80.786 392.595 78.3361 392.595 75.9157 391.442 73.5259 389.136L76.8769 385.227C78.378 386.775 79.7833 387.55 81.0922 387.55 81.7048 387.55 82.2932 387.281 82.8578 386.74 83.4222 386.187 83.7044 385.611 83.7044 385.01 83.7044 383.774 82.4013 382.687 79.7952 381.749 78.306 381.209 77.2493 380.706 76.6248 380.236 76.0003 379.756 75.4718 379.065 75.0393 378.166 74.619 377.251 74.409 376.321 74.409 375.373 74.409 373.271 75.0934 371.566 76.4626 370.257 77.8316 368.949 79.6212 368.293 81.8309 368.293 84.4491 368.293 86.6469 369.116 88.4244 370.76Z" fill="#2683C6" transform="matrix(1.00695 0 0 1 1074.78 -256.529)"/><path d="M92.838 368.617 100.926 368.617C103.1 368.617 104.854 369.253 106.187 370.527 107.52 371.787 108.186 373.451 108.186 375.517 108.186 376.874 107.856 378.166 107.196 379.391 106.547 380.604 105.562 381.509 104.241 382.111 102.92 382.712 101.791 383.023 100.854 383.048L97.9 383.119 97.9 392.271 92.838 392.271ZM97.8278 372.868 97.8278 378.921 99.8096 378.921C100.662 378.921 101.389 378.614 101.989 378.003 102.602 377.391 102.908 376.663 102.908 375.824 102.908 374.862 102.566 374.119 101.881 373.588 101.197 373.06 100.224 372.797 98.9629 372.797Z" fill="#2683C6" transform="matrix(1.00695 0 0 1 1074.78 -256.529)"/><path d="M150.917 369.877 150.917 375.661C148.359 374.112 146.119 373.338 144.198 373.338 142.276 373.338 140.739 373.998 139.586 375.319 138.433 376.64 137.856 378.418 137.856 380.652 137.856 382.766 138.463 384.459 139.676 385.732 140.889 386.992 142.51 387.623 144.54 387.623 146.317 387.623 148.443 386.909 150.917 385.479L150.917 391.209C148.143 392.133 145.831 392.595 143.981 392.595 140.799 392.595 138.097 391.43 135.875 389.101 133.653 386.759 132.542 383.906 132.542 380.543 132.542 377.12 133.671 374.225 135.929 371.86 138.199 369.483 140.955 368.293 144.198 368.293 146.287 368.293 148.527 368.821 150.917 369.877Z" fill="#2683C6" transform="matrix(1.00695 0 0 1 1074.78 -256.529)"/><path d="M154.808 368.617 168.121 368.617 168.121 373.3 159.906 373.3 159.906 378.076 168.121 378.076 168.121 382.687 159.906 382.687 159.906 387.587 168.12 387.587 168.12 392.271 154.808 392.271Z" fill="#2683C6" transform="matrix(1.00695 0 0 1 1074.78 -256.529)"/><path d="M168.706 224.978 171.076 224.978 171.076 242.531 168.706 242.531Z" fill="#2683C6" transform="matrix(1.00695 0 0 1 996.253 -82.1701)"/><path d="M173.832 224.978 184.566 224.978 184.566 227.376 180.377 227.376 180.377 242.531 178.007 242.531 178.007 227.376 173.832 227.376Z" fill="#2683C6" transform="matrix(1.00695 0 0 1 996.253 -82.1701)"/><path d="M194.941 225.005 197.339 225.005 197.339 235.793C197.339 237.392 197.72 238.628 198.482 239.5 199.254 240.373 200.342 240.809 201.748 240.809 203.144 240.809 204.228 240.41 205 239.611 205.78 238.803 206.171 237.668 206.171 236.207L206.171 225.005 208.568 225.005 208.568 236.042C208.568 238.192 207.953 239.909 206.722 241.195 205.5 242.481 203.87 243.124 201.831 243.124 199.745 243.124 198.073 242.472 196.815 241.168 195.566 239.863 194.941 237.939 194.941 235.395Z" fill="#2683C6" transform="matrix(1.00695 0 0 1 996.253 -82.1701)"/><path d="M212.619 224.978 216.147 224.978C218.14 224.978 219.747 225.445 220.97 226.382 222.191 227.319 222.803 228.536 222.803 230.035 222.803 231.54 222.154 232.805 220.859 233.823 219.574 234.844 217.616 235.338 214.99 235.311L214.99 242.531 212.619 242.531ZM214.99 227.071 214.99 233.218C216.789 233.199 218.121 232.946 218.985 232.46 219.858 231.963 220.294 231.172 220.294 230.089 220.294 229.271 219.964 228.565 219.302 227.966 218.649 227.369 217.213 227.071 214.99 227.071Z" fill="#2683C6" transform="matrix(1.00695 0 0 1 996.253 -82.1701)"/><path d="M226.192 224.978 228.507 224.978 228.507 238.192 226.192 238.192ZM225.917 241.291C225.917 240.888 226.063 240.538 226.357 240.245 226.651 239.941 227 239.79 227.405 239.79 227.818 239.79 228.171 239.941 228.465 240.245 228.76 240.538 228.906 240.888 228.906 241.291 228.906 241.704 228.76 242.059 228.465 242.353 228.171 242.637 227.818 242.779 227.405 242.779 226.992 242.779 226.637 242.637 226.343 242.353 226.059 242.059 225.917 241.704 225.917 241.291Z" fill="#2683C6" transform="matrix(1.00695 0 0 1 996.253 -82.1701)"/><path d="M146.109 329.832C146.07 329.837 146.037 329.849 146.014 329.872 145.94 329.943 145.941 329.949 146.093 330.056 146.299 330.2 146.329 330.198 146.36 330.041 146.384 329.918 146.379 329.905 146.238 329.853 146.194 329.837 146.149 329.83 146.11 329.834Z" fill="#2683C6" transform="matrix(1.00695 0 0 1 1074.78 -256.529)"/><path d="M145.437 319.25C145.375 319.24 145.279 319.261 145.226 319.294L145.127 319.357 145.231 319.509C145.354 319.691 145.34 319.682 145.465 319.645L145.466 319.645C145.544 319.622 145.563 319.578 145.558 319.442 145.549 319.277 145.545 319.269 145.437 319.25Z" fill="#2683C6" transform="matrix(1.00695 0 0 1 1074.78 -256.529)"/><path d="M155.275 298.09C154.513 298.09 153.895 298.708 153.895 299.472 153.895 300.234 154.513 300.852 155.275 300.852 156.038 300.852 156.656 300.234 156.656 299.472 156.656 298.708 156.038 298.09 155.275 298.09ZM166.254 299.418C165.492 299.418 164.874 300.035 164.874 300.797 164.874 301.559 165.492 302.179 166.254 302.179 167.017 302.179 167.635 301.559 167.635 300.797 167.635 300.035 167.017 299.418 166.254 299.418Z" fill="#2683C6" transform="matrix(1.00695 0 0 1 1074.78 -256.529)"/><path d="M70.9396 329.966C70.895 330.066 70.8509 330.164 70.8069 330.262 71.9223 330.686 73.1352 330.976 73.8885 330.97L74.4115 330.968 73.9834 330.874C72.7209 330.6 71.7741 330.323 70.9396 329.966Z" fill="#2683C6" transform="matrix(1.00695 0 0 1 1074.78 -256.529)"/><path d="M72.0041 327.71C71.8221 328.064 71.6443 328.421 71.4702 328.78 71.8668 328.981 72.3022 329.194 72.5867 329.317 73.1168 329.548 73.4858 329.651 75.0285 329.987 76.3822 330.283 77.9247 330.36 79.0441 330.185 79.2924 330.145 79.4951 330.081 79.4951 330.041 79.4951 330.001 79.0568 329.939 78.521 329.903 76.2854 329.751 73.9592 328.962 72.0041 327.71Z" fill="#2683C6" transform="matrix(1.00695 0 0 1 1074.78 -256.529)"/><path d="M74.3362 323.644 74.3362 323.644C73.9319 324.314 73.5424 324.992 73.1679 325.679 74.3804 326.708 75.5302 327.478 76.8276 328.133 78.0541 328.753 78.3711 328.868 79.4475 329.089 80.4802 329.3 81.111 329.321 81.3383 329.154 81.5487 329 81.4287 328.885 80.8745 328.705 80.287 328.515 78.9148 327.68 78.0334 326.977 76.8932 326.065 75.543 324.838 74.3362 323.644Z" fill="#2683C6" transform="matrix(1.00695 0 0 1 1074.78 -256.529)"/><path d="M152.662 354.184C152.637 354.177 152.448 354.244 152.24 354.334 151.946 354.459 151.818 354.572 151.688 354.818 151.525 355.131 151.508 355.14 151.245 355.067 151.013 355.004 150.93 354.939 150.704 354.647 150.558 354.457 150.41 354.294 150.377 354.284 150.343 354.273 150.168 354.301 149.987 354.342L149.657 354.417 149.531 355.634C149.461 356.315 149.395 356.912 149.385 356.958 149.371 357.031 150.217 358.763 150.276 358.778 150.289 358.782 150.646 358.951 151.069 359.155L151.836 359.525 154.011 361.558 156.198 363.603 157.153 364.065 158.105 364.524 158.979 366.016 159.865 367.527 160.177 367.652 160.177 367.655 160.177 367.659C160.348 367.73 160.896 367.878 161.394 367.997L162.296 368.21 162.461 366.724 162.622 365.273 162.226 364.188C161.947 363.424 161.72 362.902 161.441 362.382L161.049 361.656 161.302 359.07C161.512 356.908 161.6 355.526 161.553 355.188 161.545 355.125 161.424 355.161 161.209 355.288 161.015 355.405 160.769 355.484 160.617 355.474 160.387 355.461 160.335 355.497 160.185 355.764L160.014 356.073 159.38 355.793 158.742 355.515 158.149 355.989 157.546 356.471 156.681 356.271C155.976 356.11 155.686 356.081 155.151 356.114L154.487 356.16 153.595 355.175C153.107 354.637 152.687 354.19 152.662 354.184Z" fill="#2683C6" transform="matrix(1.00695 0 0 1 1074.78 -256.529)"/><path d="M116.387 299.077 113.894 299.186C102.669 300.399 92.0507 305.082 83.6169 312.734 83.6555 312.78 83.6831 312.817 83.7246 312.863 84.0122 313.181 84.2468 313.475 84.2468 313.519 84.2468 313.673 84.5883 313.594 84.9337 313.36 85.95 312.838 86.0297 312.73 86.625 312.302 86.9554 312.099 87.6567 311.653 88.1835 311.308 88.7105 310.964 89.5089 310.442 89.9589 310.148 90.713 309.655 91.0488 309.47 91.2306 309.482L91.2306 309.482C91.2911 309.486 91.3347 309.513 91.3709 309.555 91.4525 309.655 91.4178 309.728 91.222 309.883 90.7779 310.129 90.3431 310.499 89.9374 310.759 89.5636 310.989 89.1593 311.24 89.0378 311.319 85.9873 313.289 84.8886 314.026 84.8506 314.124 84.8252 314.191 84.9356 314.504 85.0955 314.821 85.5432 315.708 85.9487 316.783 86.1741 317.679 86.3461 318.363 86.3779 318.76 86.3747 320.156 86.3714 321.651 86.3461 321.913 86.1203 322.744 85.563 324.796 84.6092 326.455 83.1583 327.902 81.442 329.613 79.6134 330.588 77.1679 331.095 75.3921 331.462 72.723 331.27 71.2076 330.665 71.0165 330.588 70.8468 330.525 70.7105 330.481 70.7426 330.408 70.775 330.335 70.8075 330.262 70.5706 330.173 70.3314 330.085 70.1096 329.983 68.9777 329.469 67.9589 328.734 68.0873 328.528 68.1758 328.384 68.4148 328.474 68.948 328.847 69.6074 329.311 70.234 329.665 70.9401 329.966 71.1123 329.569 71.289 329.175 71.4708 328.78 70.9593 328.524 70.5059 328.288 70.4677 328.242 70.4416 328.211 70.2496 328.098 70.0407 327.996 69.5821 327.766 68.8815 327.211 68.2674 326.587 67.8312 326.142 67.8201 326.117 67.9623 325.9 68.3565 325.299 67.6222 324.51 66.9806 324.846 66.7206 324.982 66.7104 324.978 66.4154 324.562 65.769 323.654 65.1669 322.11 64.8978 320.678 64.7592 319.939 64.7187 319.284 64.7187 317.733L64.7187 315.737 65.036 315.168C65.5728 314.201 65.6417 314.243 65.3745 315.374 65.257 315.873 65.2332 316.318 65.2721 317.305 65.3182 318.476 65.3568 318.695 65.7198 319.824 66.2274 321.402 66.6747 322.293 67.6202 323.61 68.8261 325.293 69.8107 326.234 71.7038 327.518 71.8017 327.584 71.905 327.645 72.0047 327.71L72.0047 327.708C72.3779 327.023 72.766 326.347 73.1686 325.681 72.6167 325.211 72.054 324.694 71.4558 324.101 70.244 322.897 69.8823 322.469 69.1422 321.348 68.0505 319.697 67.7433 319.092 67.138 317.401 66.8408 316.57 66.5283 314.852 66.5601 314.218 66.61 313.22 66.8433 312.461 67.0992 312.461 67.238 312.461 67.2862 312.59 67.3841 313.216 67.4636 313.725 68.1708 315.516 68.6051 316.307 69.0687 317.153 70.1043 318.714 70.7276 319.507 71.0292 319.891 71.4024 320.375 71.557 320.584 72.1287 321.356 73.1654 322.483 74.3366 323.642 75.0013 322.634 75.6999 321.646 76.4313 320.682 76.7819 321.118 77.1581 321.58 77.443 321.959 77.8556 322.508 78.2229 322.98 78.2605 323.007 78.2983 323.032 78.7875 323.696 79.3477 324.479 79.9079 325.263 80.4479 326.013 80.5472 326.142 80.8564 326.549 81.7818 328.046 81.8739 328.288 81.9853 328.58 82.072 328.578 82.4445 328.263 82.7313 328.021 82.7434 327.985 82.6829 327.528 82.4838 326.025 81.6681 324.126 79.9701 321.21 79.6817 320.713 78.4404 318.935 78.3048 318.824 78.228 318.76 78.1658 318.649 78.1658 318.576 78.1658 318.526 78.1459 318.488 78.1215 318.467 77.539 319.192 76.9754 319.929 76.4313 320.682 76.2745 320.488 76.1003 320.256 75.9794 320.112 75.5874 319.643 75.1385 319.102 74.9817 318.908 74.1132 317.835 72.312 315.846 71.0739 314.592 69.5264 313.022 69.1985 312.724 68.4196 312.179 67.9382 311.841 67.9099 311.801 68.0518 311.659 68.171 311.54 68.3158 311.517 68.6957 311.561 70.0232 311.713 71.1432 312.143 72.4168 312.982 73.872 313.942 77.2407 317.171 77.8788 318.217 77.9562 318.342 78.0522 318.447 78.0923 318.447 78.1036 318.447 78.1119 318.459 78.1215 318.467L78.1215 318.465C78.7554 317.704 79.4103 316.958 80.0856 316.232 81.4383 317.996 82.8622 320.791 83.2556 322.5 83.5378 323.727 83.6004 324.389 83.5618 325.739 83.5405 326.484 83.5524 327.094 83.5877 327.094 83.623 327.094 83.7609 326.933 83.8951 326.737L83.8951 326.735C84.4526 325.921 84.4576 322.204 83.9049 320.298 83.4894 318.866 83.4234 318.701 82.6614 317.163 82.2679 316.368 81.6495 315.339 81.312 314.882 80.8956 315.324 80.4867 315.775 80.0856 316.232 80.0213 316.149 79.9564 316.055 79.8925 315.975 79.1192 315.022 77.6275 313.462 77.0009 312.953 76.3916 312.458 75.1758 311.605 75.0809 311.605 75.0592 311.605 74.6858 311.44 74.2516 311.24 73.1652 310.737 72.2999 310.561 70.9079 310.557 70.2344 310.555 69.8151 310.522 69.8983 310.474 70.5128 310.129 73.7787 310.012 74.8394 310.298 76.6611 310.785 78.5147 311.799 79.7706 312.993 80.4815 313.669 80.5917 313.886 80.2237 313.886 79.977 313.886 79.6865 314.151 79.6865 314.379 79.6865 314.604 80.029 314.988 80.3511 315.12 80.6036 315.224 80.6658 315.218 80.8288 315.07 80.9319 314.976 81.0165 314.842 81.0165 314.773 81.0165 314.702 81.0488 314.646 81.0887 314.646 81.1217 314.646 81.2033 314.734 81.312 314.882L81.312 314.882C81.7689 314.441 82.2333 314.009 82.7056 313.583 82.8238 313.755 82.8793 313.838 83.0465 314.074 84.5215 316.159 85.5067 319.031 85.4764 321.154 85.463 322.085 85.3466 323.452 85.2337 323.992 85.1957 324.174 85.2113 324.245 85.2792 324.203 85.3351 324.168 85.5131 323.727 85.6749 323.222 85.8366 322.717 86.0153 321.936 86.0708 321.49 86.2716 319.874 86.0055 317.436 85.511 316.355 84.7786 314.754 84.1349 313.715 83.4065 312.957 83.4015 312.951 83.3975 312.949 83.3925 312.943 83.4673 312.874 83.542 312.803 83.6169 312.734 83.3879 312.467 83.2018 312.214 83.2018 312.147 83.2018 312.072 83.4906 311.709 83.8436 311.344 84.1963 310.979 84.6737 310.471 84.9037 310.217 85.1339 309.962 85.7329 309.323 86.2357 308.802 88.286 306.671 89.7585 305.047 89.7585 304.915 89.7585 304.838 89.6646 304.746 89.5491 304.709 89.3715 304.652 89.1893 304.801 88.3519 305.677 87.8088 306.245 86.649 307.46 85.7753 308.374 84.7682 309.365 83.8432 310.482 82.8933 311.325L82.5416 311.615 81.8027 311.1C79.7477 309.668 77.7055 309.035 75.0951 309.017 72.6497 309 71.0342 309.459 68.6548 310.849L67.9602 311.254 67.5859 310.837C67.3801 310.605 66.7154 309.841 66.1082 309.138 64.5835 307.37 64.0055 306.758 63.868 306.758 63.8033 306.758 63.6737 306.844 63.5789 306.948 63.3053 307.251 63.2013 307.103 65.7523 310.048 67.4676 312.031 67.3703 311.795 66.7446 312.442 64.9471 314.299 63.8887 316.558 63.6209 319.112 63.3929 321.287 63.944 323.788 65.0867 325.762 65.2228 325.998 65.3338 326.255 65.3326 326.332 65.3303 326.464 64.4829 327.083 62.9296 328.092 62.6071 328.302 61.7447 328.881 61.0129 329.375 60.2811 329.872 59.6191 330.308 59.5406 330.348 59.0691 330.586 55.1285 333.276 54.9533 333.479 54.825 333.629 54.8114 333.706 54.8941 333.806L54.8941 333.806C54.9536 333.877 55.0402 333.936 55.0871 333.936 55.2526 333.936 57.2885 332.606 62.1509 329.325 63.7 328.282 65.0542 327.378 65.1602 327.319 65.2662 327.259 65.4006 327.163 65.4589 327.104 65.5171 327.048 65.6313 327 65.7122 327 65.9162 327 67.1555 328.327 67.0756 328.461 66.9813 328.62 65.9485 329.784 65.2658 330.504 64.5726 331.356 64.9078 330.851 63.8411 332.226 63.9043 332.606 64.2399 332.341 65.7231 330.751 66.5814 329.828 67.3196 329.012 67.3626 328.937 67.4678 328.751 67.7387 328.841 68.329 329.263 68.8466 329.632 70.3195 330.421 70.4894 330.421 70.5145 330.421 70.6057 330.448 70.7094 330.481 67.5782 337.39 65.9471 344.883 65.9237 352.466 65.9445 357.964 66.8103 363.426 68.4907 368.661 75.0717 348.056 93.3003 333.537 114.522 331.623 114.847 331.594 115.202 331.569 115.543 331.556 115.7 331.55 116.092 331.55 116.387 331.546ZM123.639 299.079 123.639 331.469C124.025 331.49 124.417 331.519 124.778 331.563 126.132 331.721 129.049 332.193 130.786 332.562L130.33 331.471 130.645 331.001C130.816 330.747 131.013 330.465 131.082 330.375L131.209 330.21 131.478 330.682 131.749 331.158 133.41 330.475C134.301 330.11 135.048 329.814 135.085 329.809 135.145 329.801 135.37 330.156 136.453 331.953 136.699 332.36 136.726 332.443 137.052 333.8L137.196 334.403C135.1 333.656 132.959 333.042 130.787 332.562L131.08 333.264 131.846 335.092 131.696 335.683C131.561 336.217 131.549 336.336 131.579 336.856 131.61 337.411 131.603 337.472 131.428 338.039 131.255 338.601 131.226 338.801 131.061 340.713 130.96 341.88 130.89 342.886 130.907 342.934 130.923 342.98 131.15 343.259 131.411 343.554 131.882 344.086 131.895 344.096 132.729 344.491L132.729 344.493C133.192 344.714 133.585 344.902 133.604 344.912 133.657 344.942 133.762 344.13 133.806 343.351L133.844 342.669 134.029 342.767C134.131 342.821 134.625 343.088 135.126 343.36 135.626 343.631 136.044 343.842 136.056 343.831 136.068 343.821 136.317 342.537 136.602 341.018L137.1 338.359 136.984 337.382 136.87 336.422 137.137 335.831 137.4 335.249 137.197 334.403C147.264 337.924 156.052 344.368 162.44 352.908 162.312 352.973 162.212 353.034 162.218 353.061 162.226 353.096 162.304 353.482 162.39 353.923L162.546 354.731 162.225 355.307 161.899 355.893 162.242 356.908 162.246 356.905 162.247 356.91 162.595 357.937 162.768 357.941C162.863 357.943 163.153 358.005 163.411 358.078L163.879 358.212 163.767 357.325 163.656 356.45 164.185 355.43C164.197 355.407 164.195 355.405 164.206 355.386 166.966 359.533 169.135 364.046 170.65 368.792 172.343 363.516 173.209 358.01 173.217 352.468 173.217 324.919 152.441 302.26 125.709 299.211 125.709 299.203 125.708 299.194 125.708 299.186ZM133.461 305.502 133.462 305.502C133.479 305.51 133.53 305.677 133.577 305.878 133.662 306.239 133.663 306.243 134.045 306.756 134.419 307.261 134.434 307.291 134.579 307.735 134.662 307.99 134.74 308.215 134.754 308.238 134.769 308.259 134.908 308.288 135.066 308.301L135.352 308.326 135.265 308.031 135.177 307.739 135.39 307.499C135.507 307.37 135.7 307.084 135.82 306.867L136.035 306.474 136.218 306.556 136.4 306.637 136.473 306.982C136.514 307.172 136.555 307.339 136.564 307.351 136.572 307.364 136.851 307.432 137.182 307.503L137.779 307.631 137.974 307.89C138.151 308.125 138.186 308.157 138.37 308.238L138.572 308.326 138.37 307.756 138.17 307.188 138.387 307.094C138.506 307.044 138.619 307.017 138.64 307.038 138.661 307.061 138.699 307.136 138.725 307.209 138.751 307.28 138.784 307.345 138.799 307.351 138.813 307.357 138.944 307.357 139.09 307.353L139.354 307.343 139.254 307.048C139.178 306.825 139.159 306.708 139.172 306.562L139.188 306.37 139.473 306.497C139.777 306.635 139.805 306.664 139.804 306.844 139.802 306.95 139.831 306.965 140.337 307.092L140.732 307.192 140.95 307.051C141.071 306.973 141.192 306.902 141.221 306.894 141.251 306.886 141.58 306.988 141.954 307.121L142.629 307.366 143.124 307.359 143.616 307.353 143.622 307.591 143.631 307.831 144.017 308.399 144.404 308.971 146.045 309.941C146.942 310.471 147.705 310.922 147.741 310.947 147.793 310.979 147.717 311.062 147.401 311.319 147.174 311.503 146.992 311.661 146.998 311.67 147.003 311.676 147.189 311.814 147.409 311.972 147.629 312.131 147.817 312.271 147.827 312.283 147.835 312.296 147.765 312.392 147.669 312.498 147.572 312.605 147.493 312.701 147.494 312.709 147.495 312.719 147.732 312.974 148.021 313.275 148.492 313.763 148.564 313.853 148.704 314.112 148.872 314.42 148.866 314.445 148.66 314.358 148.593 314.327 148.546 314.27 148.481 314.132 148.416 313.995 148.327 313.884 148.146 313.709L147.9 313.469 147.751 313.531 147.6 313.592 147.164 313.381 146.726 313.17 146.597 313.333C146.478 313.481 146.408 313.51 145.785 313.65 145.405 313.734 145.086 313.796 145.079 313.786 145.073 313.775 145.083 313.619 145.103 313.437L145.141 313.11 144.713 313.385C144.475 313.54 144.281 313.675 144.281 313.688 144.282 313.698 144.519 314.168 144.811 314.734 145.105 315.301 145.349 315.792 145.35 315.817 145.352 315.842 145.3 315.93 145.236 316.009L145.119 316.155 144.959 316.007C144.844 315.898 144.797 315.871 144.798 315.909 144.799 315.938 144.863 316.562 144.941 317.305L145.088 318.685 147.142 320.797C148.28 321.968 149.254 322.978 149.3 323.036 149.345 323.095 149.847 324.28 150.424 325.698L151.501 328.344 153.376 330.312C154.896 331.907 155.292 332.304 155.387 332.324 155.685 332.395 158.158 333.055 158.248 333.088 158.326 333.118 158.402 333.218 158.573 333.51L158.797 333.894 158.722 333.998C158.681 334.057 158.506 334.272 158.331 334.474 158.106 334.737 158.025 334.871 158.062 334.923 158.092 334.961 158.535 335.428 159.05 335.956L159.989 336.923 162.524 338.834 165.058 340.748 166.403 342.37C167.149 343.272 167.768 344.03 167.772 344.05 167.776 344.071 167.939 344.668 168.137 345.386 168.336 346.113 168.494 346.724 168.487 346.737 168.481 346.749 168.147 346.476 167.749 346.127L167.027 345.497 166.623 344.482 166.225 343.483 165.024 342.879C164.36 342.548 163.811 342.257 163.807 342.237 163.803 342.216 163.851 342.134 163.912 342.051 163.972 341.971 164.019 341.888 164.015 341.869 164.011 341.848 163.752 341.7 163.437 341.535 162.96 341.285 162.86 341.247 162.843 341.304 162.83 341.339 162.761 341.832 162.686 342.401 162.562 343.349 162.553 343.518 162.606 344.078 162.64 344.424 162.654 345 162.639 345.361L162.612 346.025 162.829 346.446C163.041 346.86 163.056 346.879 163.494 347.231 163.74 347.43 164.234 347.83 164.591 348.12L165.242 348.648 165.396 349.54C165.549 350.429 165.556 350.452 165.773 350.93 166.034 351.506 166.085 351.456 165.307 351.381L164.798 351.333 164.543 351.871C164.4 352.172 164.267 352.456 164.246 352.504 164.209 352.587 164.322 353.086 164.631 354.2 164.688 354.411 164.646 354.522 164.202 355.382 163.638 354.543 163.05 353.718 162.439 352.911 162.491 352.885 162.537 352.86 162.599 352.835 162.836 352.737 162.998 352.623 163.006 352.549 163.014 352.481 162.963 352.086 162.897 351.671L162.776 350.926 162.132 349.394C161.682 348.321 161.35 347.603 160.986 346.912 160.706 346.38 160.186 345.311 159.83 344.541L159.192 343.159 158.854 343.253C158.269 343.418 158.39 343.468 157.492 342.692 157.05 342.31 156.667 341.967 156.641 341.932 156.614 341.892 156.62 341.702 156.656 341.481L156.717 341.101 156.231 340.16C155.966 339.644 155.731 339.198 155.707 339.162 155.682 339.125 155.364 339.133 154.981 339.177 154.603 339.221 154.27 339.252 154.243 339.241 154.215 339.231 154.196 339.156 154.198 339.066 154.199 338.981 154.204 338.759 154.209 338.576 154.213 338.392 154.206 338.169 154.198 338.083L154.18 337.922 153.681 337.705 153.179 337.488 152.355 336.138 151.542 334.802 151.315 334.746C151.19 334.716 150.646 334.547 150.102 334.37L149.109 334.046 148.2 333.08C147.434 332.268 147.172 331.953 146.511 331.058 146.082 330.477 145.379 329.571 144.947 329.045 144.484 328.48 144.004 327.843 143.772 327.484L143.383 326.881 142.656 326.27 141.93 325.658 141.857 325.382C141.758 325.015 140.787 323.414 140.26 322.75L139.881 322.27 139.898 321.861 139.917 321.456 139.395 320.423 138.879 319.403 138.774 318.524 138.671 317.656 138.231 317.017 137.793 316.38 137.491 316.311C137.325 316.274 137.146 316.236 137.096 316.228 137.026 316.215 136.835 315.99 136.309 315.299 135.83 314.669 135.576 314.366 135.478 314.308 135.4 314.26 135.058 314.061 134.718 313.867L134.099 313.51 133.518 313.773C133.027 313.993 132.861 314.041 132.524 314.053L132.118 314.068 132.023 314.5C131.97 314.738 131.909 314.957 131.887 314.982 131.859 315.015 130.163 314.882 129.995 314.832 129.987 314.83 130.124 314.654 130.297 314.443 130.47 314.235 130.613 314.026 130.618 313.98 130.622 313.932 130.602 313.738 130.574 313.55 130.533 313.266 130.508 313.204 130.433 313.181 130.383 313.166 130.05 313.064 129.691 312.957L129.035 312.763 128.88 312.55C128.793 312.433 128.561 312.106 128.362 311.822L128.002 311.308 128.245 310.918 128.485 310.532 128.413 310.064C128.347 309.634 128.315 309.543 127.974 308.85 127.773 308.441 127.616 308.107 127.626 308.105 127.634 308.102 127.795 308.144 127.98 308.196 128.341 308.301 128.289 308.307 129.004 308.065L129.267 307.975 128.93 306.952 128.597 305.944 128.907 305.798C129.184 305.667 129.228 305.66 129.344 305.729 129.864 306.04 129.899 306.055 130.384 306.086L130.843 306.113 131.287 306.368 131.731 306.621 132.254 306.458C132.539 306.37 132.772 306.287 132.773 306.274 132.774 306.262 132.75 306.115 132.721 305.953L132.668 305.656 132.893 305.587C133.116 305.521 133.404 305.477 133.461 305.502ZM110.3 305.921C111.063 305.921 111.681 306.539 111.681 307.301 111.681 308.065 111.063 308.683 110.3 308.683 109.538 308.683 108.919 308.065 108.919 307.301 108.919 306.539 109.538 305.921 110.3 305.921ZM155.521 306.474C155.085 306.474 154.732 306.827 154.733 307.263 154.733 307.698 155.086 308.05 155.521 308.052 155.956 308.05 156.309 307.698 156.31 307.263 156.31 306.827 155.957 306.474 155.521 306.474ZM172.211 308.14C171.776 308.14 171.422 308.493 171.422 308.929 171.421 309.365 171.775 309.72 172.211 309.72 172.647 309.718 173 309.365 173 308.929 172.999 308.495 172.647 308.142 172.211 308.14ZM74.9698 309.184C76.0495 309.175 77.8343 309.493 78.9261 309.91 80.1753 310.39 82.0644 311.513 82.1941 311.851 82.2197 311.918 82.155 312.081 82.0496 312.214 81.8204 312.507 81.7954 312.509 81.4909 312.262 79.8835 310.962 77.1741 309.668 75.8293 309.557 74.9062 309.422 74.686 309.405 73.9364 309.286L74.5545 309.209C74.6759 309.194 74.8154 309.186 74.9698 309.184ZM102.806 310.259C103.242 310.261 103.595 310.613 103.595 311.05 103.594 311.484 103.241 311.836 102.806 311.836 102.37 311.839 102.017 311.484 102.016 311.05 102.016 310.613 102.37 310.259 102.806 310.259ZM165.445 311.469C164.683 311.469 164.065 312.087 164.065 312.849 164.065 313.611 164.683 314.23 165.445 314.23 166.208 314.23 166.826 313.611 166.826 312.849 166.826 312.087 166.208 311.469 165.445 311.469ZM93.5171 312.479C94.2796 312.479 94.8978 313.099 94.8978 313.861 94.8978 314.623 94.2796 315.241 93.5171 315.241 92.7547 315.241 92.1367 314.623 92.1367 313.861 92.1367 313.099 92.7547 312.479 93.5171 312.479ZM98.4669 318.937C99.2294 318.937 99.8474 319.555 99.8474 320.319 99.8474 321.081 99.2294 321.699 98.4669 321.699 97.7045 321.699 97.0863 321.081 97.0863 320.319 97.0863 319.555 97.7045 318.937 98.4669 318.937ZM63.8732 319.659C63.9054 319.686 63.9774 320.237 64.0986 321.344 64.2017 322.287 64.357 322.997 64.5764 323.529 64.8333 324.153 65.2823 325.023 65.5764 325.468 65.9239 325.996 65.9101 326.32 65.557 325.929 65.0619 325.385 64.4833 324.078 64.1395 322.732 63.9676 322.06 63.8966 321.481 63.8667 320.536 63.848 319.937 63.8482 319.638 63.8732 319.659ZM168.361 319.893C167.924 319.893 167.571 320.246 167.571 320.682 167.572 321.118 167.925 321.471 168.361 321.471 168.796 321.471 169.149 321.118 169.149 320.682 169.149 320.248 168.796 319.893 168.361 319.893ZM104.384 325.251C105.582 325.251 106.553 326.221 106.553 327.42 106.553 328.618 105.582 329.588 104.384 329.588 103.186 329.588 102.214 328.618 102.214 327.42 102.214 326.221 103.186 325.249 104.384 325.251ZM66.2956 326.712C66.4651 326.712 67.4484 327.741 67.3818 327.85 67.2743 328.023 67.172 327.96 66.6765 327.417 66.1942 326.889 66.0988 326.712 66.2956 326.712ZM93.9304 330.772C94.366 330.772 94.7196 331.124 94.7198 331.561 94.7196 331.997 94.366 332.349 93.9304 332.349 93.495 332.349 93.1421 331.997 93.1418 331.561 93.1421 331.124 93.495 330.772 93.9304 330.772ZM84.8584 332.349C85.294 332.349 85.6471 332.702 85.6467 333.138 85.6465 333.575 85.2936 333.927 84.8584 333.927 84.4226 333.927 84.069 333.575 84.0688 333.138 84.0684 332.702 84.4221 332.349 84.8584 332.349ZM77.5605 339.45C78.3229 339.45 78.9411 340.068 78.9411 340.83 78.9411 341.592 78.3229 342.212 77.5605 342.212 76.798 342.212 76.18 341.592 76.18 340.83 76.18 340.068 76.798 339.45 77.5605 339.45ZM72.2356 348.129C72.6708 348.129 73.0237 348.482 73.0239 348.916 73.0243 349.352 72.6712 349.705 72.2356 349.707 71.7998 349.705 71.4466 349.352 71.447 348.916 71.4473 348.482 71.8002 348.129 72.2356 348.129Z" fill="#2683C6" transform="matrix(1.00695 0 0 1 1074.78 -256.529)"/><path d="M149.035 302.859C148.599 302.859 148.245 303.212 148.245 303.648 148.245 304.085 148.599 304.437 149.035 304.437 149.47 304.437 149.823 304.085 149.823 303.648 149.824 303.214 149.47 302.859 149.035 302.859Z" fill="#2683C6" transform="matrix(1.00695 0 0 1 1074.78 -256.529)"/><path d="M134.496 294.6C134.061 294.6 133.708 294.953 133.708 295.389 133.708 295.826 134.061 296.178 134.496 296.178 134.932 296.178 135.286 295.826 135.286 295.389 135.286 294.953 134.933 294.6 134.496 294.6Z" fill="#2683C6" transform="matrix(1.00695 0 0 1 1074.78 -256.529)"/><path d="M141.2 296.779C140.001 296.777 139.03 297.75 139.03 298.948 139.03 300.146 140.002 301.119 141.2 301.117 142.398 301.117 143.369 300.146 143.369 298.948 143.37 297.75 142.398 296.779 141.2 296.779Z" fill="#2683C6" transform="matrix(1.00695 0 0 1 1074.78 -256.529)"/><path d="M122.053 294.419C120.893 294.748 119.095 294.854 117.745 294.932L117.745 355.363 108.043 393.669 73.5256 393.669 73.5256 397.13 111.901 397.117 119.924 365.109 128.125 397.118 168.12 397.13 168.12 393.669 131.983 393.669 122.053 355.363Z" fill="#2683C6" transform="matrix(1.00695 0 0 1 1074.78 -256.529)"/><path d="M106.619 295.673C105.47 295.179 105.037 294.131 105.192 292.206 105.321 290.597 106.364 287.506 106.779 287.506 106.876 287.506 107.258 288.078 107.629 288.777 108.464 290.351 110.253 292.004 111.121 292.004 113.352 292.004 117.142 289.887 120.625 286.696 124.38 283.256 127.366 278.468 127.406 275.824 127.428 274.309 126.948 273.726 124.434 272.221 122.57 271.107 122.581 271.084 125.579 270.053 128.566 269.026 130.735 269.531 131.244 271.376 132.831 277.122 120.672 291.624 111.339 295.116 109.493 295.807 107.483 296.043 106.619 295.673ZM117.636 293.075C121.964 289.743 125.659 286.07 128.114 282.657 128.642 281.923 129.144 281.322 129.23 281.322 129.315 281.322 129.313 282.175 129.226 283.221 128.984 286.108 128.11 288.103 126.19 290.155 124.052 292.44 121.911 293.457 118.903 293.613L116.793 293.724 117.636 293.075ZM110.106 290.052C109.576 289.585 108.74 288.314 108.21 287.168 107.368 285.344 107.264 284.853 107.269 282.728 107.278 278.773 109.008 275.471 112.116 273.476 115.924 271.032 121.068 271.165 124.749 273.803 125.881 274.613 126.083 274.906 126.161 275.841 126.438 279.191 119.791 287.066 114.544 289.604 111.66 290.998 111.233 291.042 110.106 290.052ZM113.587 285.665C114.853 285.012 115.526 283.699 115.526 281.885 115.526 278.395 112.692 276.807 110.455 279.042 108.799 280.7 108.806 283.638 110.469 285.302 111.374 286.208 112.325 286.318 113.587 285.665Z" fill="#2683C6" transform="matrix(1.00695 0 0 1 1074.78 -256.529)"/></g></svg>